<?xml version="1.0" standalone="no"?>
<!DOCTYPE svg PUBLIC "-//W3C//DTD SVG 20010904//EN"
 "http://www.w3.org/TR/2001/REC-SVG-20010904/DTD/svg10.dtd">
<svg version="1.0" xmlns="http://www.w3.org/2000/svg"
 width="700.000000pt" height="700.000000pt" viewBox="0 0 700.000000 700.000000"
 preserveAspectRatio="xMidYMid meet">
<metadata>
Created by potrace 1.11, written by Peter Selinger 2001-2013
</metadata>
<g transform="translate(0.000000,700.000000) scale(0.100000,-0.100000)"
fill="#000000" stroke="none">
<path d="M3778 5145 c-2 -2 -23 -5 -48 -8 -270 -35 -456 -265 -444 -550 6
-137 49 -270 124 -388 38 -58 38 -88 0 -200 -25 -76 -195 -482 -265 -634 -13
-27 -53 -120 -90 -205 -37 -85 -70 -158 -74 -162 -3 -3 -24 -9 -46 -12 -23 -4
-52 -9 -65 -11 -14 -3 -54 -10 -90 -15 -36 -5 -74 -12 -85 -14 -12 -2 -45 -7
-75 -10 -53 -7 -57 -5 -130 42 -164 106 -425 334 -459 400 -15 30 -16 40 -4
95 17 81 19 217 5 292 -57 295 -381 488 -687 410 -237 -61 -411 -270 -421
-505 -3 -80 2 -115 44 -290 l9 -36 -268 -272 c-273 -278 -348 -369 -350 -426
-2 -47 5 -98 16 -115 14 -24 68 -43 103 -37 32 5 102 44 127 71 6 5 26 23 45
39 19 16 117 109 218 207 204 200 291 275 340 296 28 12 39 11 80 -3 96 -32
357 -22 451 19 26 11 43 12 69 5 30 -8 82 -38 102 -58 3 -3 34 -30 70 -60 36
-30 67 -57 70 -60 3 -3 46 -41 95 -84 153 -135 203 -195 200 -241 -1 -11 -7
-40 -14 -65 -40 -138 0 -331 99 -474 56 -82 138 -153 222 -191 89 -41 240 -44
413 -10 69 14 154 64 218 129 205 210 210 508 13 808 -23 35 -18 82 23 200 27
79 182 450 252 604 15 34 58 131 94 215 37 85 70 157 73 161 4 3 39 9 77 13
144 14 263 49 349 103 41 26 51 29 87 21 45 -10 106 -43 260 -139 58 -37 112
-70 120 -73 8 -4 41 -25 74 -47 33 -22 70 -44 81 -49 20 -9 22 -18 24 -108 3
-216 17 -284 76 -378 66 -105 190 -201 308 -237 103 -33 294 -32 381 2 160 61
278 187 337 359 18 54 22 87 22 176 -1 96 -5 121 -31 196 l-30 85 291 295
c390 394 469 487 482 568 12 73 -29 127 -109 141 -37 7 -42 5 -110 -52 -87
-72 -158 -139 -387 -362 -224 -218 -352 -332 -394 -352 -31 -16 -37 -15 -92 6
-73 27 -204 34 -301 14 -42 -8 -110 -35 -179 -70 l-111 -56 -202 126 c-111 69
-204 126 -207 126 -2 0 -37 21 -77 48 l-74 47 -1 100 c-5 257 -39 355 -169
479 -107 103 -221 152 -374 159 -43 2 -80 3 -81 2z m181 -302 c49 -22 99 -77
130 -143 34 -74 35 -175 2 -238 -61 -118 -185 -177 -318 -150 -67 13 -143 78
-185 158 -36 70 -32 168 8 240 77 135 232 192 363 133z m-2364 -958 c113 -54
183 -166 171 -275 -4 -30 -18 -78 -33 -107 -54 -108 -123 -144 -266 -139 -128
4 -172 34 -233 162 -43 87 -48 129 -22 186 23 53 109 142 163 170 80 42 136
43 220 3z m3878 5 c59 -30 152 -125 177 -182 23 -55 19 -92 -24 -181 -59 -126
-106 -158 -232 -163 -105 -4 -157 10 -205 56 -44 42 -100 153 -106 214 -7 56
21 110 91 180 104 102 198 126 299 76z m-2480 -1224 c19 -8 53 -30 75 -50 142
-129 103 -366 -75 -456 -62 -32 -158 -34 -218 -5 -137 67 -206 237 -148 366
25 55 85 124 126 146 64 33 161 33 240 -1z"/>
</g>
</svg>
